<?xml version="1.0" standalone="no"?>
<!DOCTYPE svg PUBLIC "-//W3C//DTD SVG 20010904//EN"
 "http://www.w3.org/TR/2001/REC-SVG-20010904/DTD/svg10.dtd">
<svg version="1.0" xmlns="http://www.w3.org/2000/svg"
 width="25px" height="25px" viewBox="0 0 512.000000 512.000000"
 preserveAspectRatio="xMidYMid meet">

<g transform="translate(0.000000,512.000000) scale(0.100000,-0.100000)"
fill="#000000" stroke="none">
<path d="M242 5099 c-44 -22 -83 -76 -96 -132 -16 -69 41 -164 117 -191 23 -8
164 -36 312 -61 149 -26 272 -49 274 -51 3 -2 120 -716 262 -1587 142 -870
261 -1592 264 -1604 8 -33 65 -94 102 -109 27 -12 284 -14 1465 -14 1377 0
1435 1 1468 19 19 10 48 35 65 55 26 33 30 46 30 100 0 76 -32 132 -92 162
-37 18 -85 19 -1377 24 l-1339 5 -33 200 c-18 110 -35 212 -38 228 l-5 27
1347 0 c772 0 1364 4 1386 10 52 12 86 38 113 86 11 21 130 379 264 794 176
549 242 767 242 801 -1 57 -23 100 -70 136 l-36 28 -1774 3 -1773 2 -5 23 c-2
12 -32 193 -65 402 -34 209 -66 397 -72 418 -14 46 -66 102 -110 116 -43 13
-721 131 -756 131 -15 0 -46 -10 -70 -21z m4306 -1433 c-2 -8 -84 -267 -183
-575 l-180 -561 -1312 0 c-1044 0 -1313 3 -1313 13 0 6 -41 260 -90 562 -50
303 -90 556 -90 563 0 9 324 12 1586 12 1360 0 1585 -2 1582 -14z"/>
<path d="M1710 1163 c-105 -17 -222 -77 -305 -155 -158 -147 -219 -361 -165
-572 27 -108 63 -169 150 -257 184 -187 444 -231 676 -114 91 46 160 107 217
192 135 199 135 457 0 657 -124 182 -360 285 -573 249z m160 -363 c19 -5 52
-24 73 -41 130 -107 100 -319 -55 -383 -92 -39 -214 -2 -273 83 -27 39 -30 50
-30 124 0 76 2 85 32 129 56 80 157 115 253 88z"/>
<path d="M3800 1155 c-220 -50 -398 -231 -445 -451 -41 -193 18 -387 160 -529
232 -231 590 -233 820 -3 309 310 193 814 -223 965 -85 31 -219 39 -312 18z
m197 -356 c134 -50 191 -195 125 -320 -72 -137 -254 -160 -360 -45 -61 66 -76
143 -47 227 40 112 175 178 282 138z"/>
</g>
</svg>
